# xmcd CD database file
#
# Track frame offsets:
#	150
#	11187
#	24574
#	40006
#	54131
#	66731
#	81619
#	96594
#	111019
#	124894
#	144172
#	156784
#	170589
#	189856
#	207879
#	222654
#	241284
#	263584
#	275006
#	285356
#	306419
#	320697
#	334635
#
# Disc length: 4593 seconds
#
# Revision: 0
# Processed by: cddbd v1.5.2PL0 Copyright (c) Steve Scherf et al.
# Submitted via: CDex 1.50beta10
#
DISCID=5a11ef17
DTITLE=Louis Armstrong - Collection&Story
DYEAR=2013
DGENRE=Jazz
TTITLE0=Hello Dolly
TTITLE1=Moon river
TTITLE2=What a wonderful world
TTITLE3=Georgia on my mind
TTITLE4=When the saints go marchin in
TTITLE5=Blueberry hill
TTITLE6=Let's fall in love
TTITLE7=Only you
TTITLE8=Dream a little dream of me
TTITLE9=I only have eyes for you
TTITLE10=Ramona
TTITLE11=Tin roof blues
TTITLE12=Top hat, white tie and tails
TTITLE13=I gotta right to sign the blues
TTITLE14=East of sun and west of moon
TTITLE15=We will be together again
TTITLE16=Nobody knows the trouble I 've seen
TTITLE17=Uncle Sam's lullaby
TTITLE18=Skokiann
TTITLE19=Jeepers creepers
TTITLE20=Down by the riverside
TTITLE21=C'est si bon
TTITLE22=I still get jealous
EXTD=YEAR: 2013
EXTT0=
EXTT1=
EXTT2=
EXTT3=
EXTT4=
EXTT5=
EXTT6=
EXTT7=
EXTT8=
EXTT9=
EXTT10=
EXTT11=
EXTT12=
EXTT13=
EXTT14=
EXTT15=
EXTT16=
EXTT17=
EXTT18=
EXTT19=
EXTT20=
EXTT21=
EXTT22=
PLAYORDER=
